<svg xmlns="http://www.w3.org/2000/svg" width="2000" height="2000" viewBox="0 0 2000 2000">
  <defs>
    <style>
      .cls-1 {
        fill: #fff;
        fill-rule: evenodd;
      }
    </style>
  </defs>
  <rect x="37.594" y="37.594" width="1924.816" height="1924.816" rx="573" ry="573"/>
  <path id="Q" class="cls-1" d="M500.845,1192.51q42.235,97.635,114.316,168.28,72.057,70.65,172.893,112.18,100.815,41.535,213.016,41.54,121.41,0,235.02-51.12l100.82,120.7,140.59-115.02-91.6-110.77q73.845-71.7,114.68-167.92,40.815-96.21,40.82-204.136,0-108.636-41.89-206.266-41.91-97.618-113.96-167.923-72.075-70.293-172.18-111.831-100.125-41.536-212.3-41.537-149.831,0-274.789,70.294Q601.3,599.274,529.956,720.335T458.6,986.244Q458.6,1094.883,500.845,1192.51Zm257.388-453q99.4-100.464,242.837-100.47,142.71,0,241.41,100.115,98.685,100.116,98.69,247.093,0,128.529-77.39,224.376l-108.64-132.78-142.71,115.02,101.53,122.13q-51.84,19.17-112.89,19.17-143.441,0-242.837-100.11-99.417-100.125-99.4-247.806Q658.828,839.982,758.233,739.506Z"/>
</svg>
